<?xml version="1.0" encoding="UTF-8"?>
<svg version="1.1" viewBox="0 0 600 600" xmlns="http://www.w3.org/2000/svg">
 <g transform="translate(0 -452.36)">
  <g transform="matrix(1.667 0 0 2.0294 -2472.9 224.77)" fill="#fff">
   <g transform="matrix(.15211 .046598 -.065091 .08842 1463.3 100.27)" fill="#fff" stroke-width="0">
    <g transform="matrix(.99103 .11859 .096292 1.1653 53.581 -12.695)" fill="#fff" stroke-width="0">
     <g transform="matrix(2.7606 0 0 2.7606 -1250.9 1722.6)" stroke-width="0">
      <path transform="matrix(2.6543 -1.3988 1.3995 3.2704 -405.02 -1440.6)" d="m440 450.93a134.29 115.71 0 1 1 -0.16865 -5.7974" fill="#f7fcfe" opacity=".9485"/>
      <g transform="matrix(1.1523 -.045945 -.037306 1.0848 -147.67 104.78)">
       <path transform="matrix(.68679 -.73697 .63962 .93341 450.2 853.62)" d="m1078-613.3c-2.382-0.0593-4.6653 0.86293-7.4062 2.5-7.4022 4.42-10.849 13.753-12.438 33.75-1.4067 17.707-1.7518 18.443-12.875 27.156-6.288 4.9259-13.12 12.284-15.187 16.375-3.4409 6.8057-3.2954 8.1304 1.5312 15.344 3.0498 4.5578 9.0884 8.8949 14.344 10.281 4.9969 1.319 9.7426 4.2697 10.531 6.5625s0.3709 12.598-0.9375 22.906c-1.5322 12.074-1.5159 20.584 0.094 23.938 2.8342 5.9051 12.575 6.8189 20.906 1.9688 3.0521-1.7769 10.953-8.7643 17.531-15.562 6.5755-6.7982 13.58-12.375 15.594-12.375s13.56 4.0021 25.625 8.9062c18.261 7.4225 22.97 8.4025 28.188 5.75 10.22-5.1956 8.1979-15.758-6.4375-33.625-6.9867-8.5296-12.688-17.717-12.688-20.406 0-2.6897 2.9015-9.2463 6.4375-14.594 8.127-12.291 12.507-28.392 10.344-38-1.6576-7.3704-1.8577-7.4196-22.937-6.625l-21.281 0.78125-16.562-17.719c-11.512-12.324-17.135-17.182-22.375-17.312z" fill="#595857"/>
       <path transform="matrix(.68679 -.73697 .63962 .93341 450.2 853.62)" d="m1111.3-466.08c-3.2101 0.15122-6.2509 1.5662-8.6562 4.25-5.7517 6.4174-4.9539 12.564 3.5 27.438 4.1104 7.232 11.698 27.887 16.875 45.906 9.2354 32.145 13.776 40.451 13.688 24.969-0.025-4.2876-1.7135-19.281-3.7813-33.312-2.0661-14.032-3.7712-32.783-3.7812-41.688 0-12.995-1.0994-17.36-5.5625-22-3.7354-3.8829-8.1511-5.7569-12.281-5.5625z" fill="#595857"/>
       <path transform="matrix(.68679 -.73697 .63962 .93341 450.2 853.62)" d="m1197.7-401.08c-16.449 0-28.024 11.232-40.688 39.5-4.4971 10.039-10.404 21.662-13.156 25.812-4.9767 7.5128-4.9764 7.776 0.375 56.875 2.9581 27.127 5.8419 51.224 6.4376 53.562 0.5942 2.3387 2.346 20.785 3.875 41 1.5267 20.215 3.9619 38.39 5.4374 40.375 5.6328 7.571 7.7428 0.0452 6-21.5-0.9601-11.889-4.5279-45.485-7.9062-74.688s-6.125-60.732-6.125-70.062c0-14.858 0.9534-18.184 7.7188-26.781 5.1775-6.5796 13.721-12.384 25.937-17.594 22.39-9.546 29.844-17.215 29.844-30.688 0-11.318-5.0553-15.812-17.75-15.812z" fill="#595857"/>
       <path transform="matrix(.68679 -.73697 .63962 .93341 450.2 853.62)" d="m1078.4-385.11c-42.109 6.9075 1.8052 29.996 9.0312 33.562 20.865 10.214 27.683 11.863 30.188 7.3438 2.6612-4.8049-6.7075-25.651-14.188-31.594-7.8391-6.2294-17.034-9.3327-25.031-9.3125z" fill="#595857"/>
       <path transform="matrix(.68679 -.73697 .63962 .93341 450.2 853.62)" d="m1110.2-278.7c-2.4625 0.0377-5.1889 0.74687-9.0313 2.0312-13.243 4.4277-27.821 18.464-23.844 22.969 3.7283 4.2234 57.09 25.481 61.969 24.688 2.2198-0.36078 4.1217-4.1936 4.5626-9.1875 0.9737-11.066-11.565-30.881-23.594-37.281-4.1638-2.2155-6.8964-3.2672-10.062-3.2188z" fill="#595857"/>
       <path transform="matrix(.68679 -.73697 .63962 .93341 450.2 853.62)" d="m1107-538.86c-1.3092 0.16676-3.0174 1.4917-4.9062 4.0312-1.7394 2.3387-5.2207 4.25-7.75 4.25-2.5296 0-5.3093 2.4288-6.1563 5.4062-3.1456 11.058-7.848 12.285-16.406 4.25-4.4073-4.1379-8.6922-6.7484-9.5312-5.8125-2.1216 2.3673 4.3057 10.497 10.531 13.312 12.933 5.849 51.419-0.37152 56.25-9.0938 2.5632-4.6272-0.793-5.8515-6.5624-2.4062-6.5288 3.8985-12.75-0.43275-12.75-8.8438 0-3.6062-1.0356-5.3082-2.7188-5.0938z" fill="#fff"/>
       <path d="m1078-613.3c-2.382-0.0593-4.6653 0.86293-7.4062 2.5-7.4022 4.42-10.849 13.753-12.438 33.75-1.4067 17.707-1.7518 18.443-12.875 27.156-6.288 4.9259-13.12 12.284-15.187 16.375-3.4409 6.8057-3.2954 8.1304 1.5312 15.344 3.0498 4.5578 9.0884 8.8949 14.344 10.281 4.9969 1.319 9.7426 4.2697 10.531 6.5625s0.3709 12.598-0.9375 22.906c-1.5322 12.074-1.5159 20.584 0.094 23.938 2.8342 5.9051 12.575 6.8189 20.906 1.9688 3.0521-1.7769 10.953-8.7643 17.531-15.562 6.5755-6.7982 13.58-12.375 15.594-12.375s13.56 4.0021 25.625 8.9062c18.261 7.4225 22.97 8.4025 28.188 5.75 10.22-5.1956 8.1979-15.758-6.4375-33.625-6.9867-8.5296-12.688-17.717-12.688-20.406 0-2.6897 2.9015-9.2463 6.4375-14.594 8.127-12.291 12.507-28.392 10.344-38-1.6576-7.3704-1.8577-7.4196-22.937-6.625l-21.281 0.78125-16.562-17.719c-11.512-12.324-17.135-17.182-22.375-17.312z" fill="#595857"/>
       <path d="m1111.3-466.08c-3.2101 0.15122-6.2509 1.5662-8.6562 4.25-5.7517 6.4174-4.9539 12.564 3.5 27.438 4.1104 7.232 11.698 27.887 16.875 45.906 9.2354 32.145 13.776 40.451 13.688 24.969-0.025-4.2876-1.7135-19.281-3.7813-33.312-2.0661-14.032-3.7712-32.783-3.7812-41.688 0-12.995-1.0994-17.36-5.5625-22-3.7354-3.8829-8.1511-5.7569-12.281-5.5625z" fill="#595857"/>
       <path d="m1197.7-401.08c-16.449 0-28.024 11.232-40.688 39.5-4.4971 10.039-10.404 21.662-13.156 25.812-4.9767 7.5128-4.9764 7.776 0.375 56.875 2.9581 27.127 5.8419 51.224 6.4376 53.562 0.5942 2.3387 2.346 20.785 3.875 41 1.5267 20.215 3.9619 38.39 5.4374 40.375 5.6328 7.571 7.7428 0.0452 6-21.5-0.9601-11.889-4.5279-45.485-7.9062-74.688s-6.125-60.732-6.125-70.062c0-14.858 0.9534-18.184 7.7188-26.781 5.1775-6.5796 13.721-12.384 25.937-17.594 22.39-9.546 29.844-17.215 29.844-30.688 0-11.318-5.0553-15.812-17.75-15.812z" fill="#595857"/>
       <path d="m1078.4-385.11c-42.109 6.9075 1.8052 29.996 9.0312 33.562 20.865 10.214 27.683 11.863 30.188 7.3438 2.6612-4.8049-6.7075-25.651-14.188-31.594-7.8391-6.2294-17.034-9.3327-25.031-9.3125z" fill="#595857"/>
       <path d="m1110.2-278.7c-2.4625 0.0377-5.1889 0.74687-9.0313 2.0312-13.243 4.4277-27.821 18.464-23.844 22.969 3.7283 4.2234 57.09 25.481 61.969 24.688 2.2198-0.36078 4.1217-4.1936 4.5626-9.1875 0.9737-11.066-11.565-30.881-23.594-37.281-4.1638-2.2155-6.8964-3.2672-10.062-3.2188z" fill="#595857"/>
       <path d="m1209.8-275.73c-2.2007-0.0245-5.1269 1.5726-8.9687 4.625-10.838 8.6103-21.131 26.814-22.75 40.281-0.7975 6.6324-0.396 11.448 0.875 10.844 1.2571-0.59742 9.9742-5.2908 19.406-10.438l17.156-9.375v-16.938c0-12.991-1.513-18.953-5.7188-19z" fill="#595857"/>
       <path d="m1107-538.86c-1.3092 0.16676-3.0174 1.4917-4.9062 4.0312-1.7394 2.3387-5.2207 4.25-7.75 4.25-2.5296 0-5.3093 2.4288-6.1563 5.4062-3.1456 11.058-7.848 12.285-16.406 4.25-4.4073-4.1379-8.6922-6.7484-9.5312-5.8125-2.1216 2.3673 4.3057 10.497 10.531 13.312 12.933 5.849 51.419-0.37152 56.25-9.0938 2.5632-4.6272-0.793-5.8515-6.5624-2.4062-6.5288 3.8985-12.75-0.43275-12.75-8.8438 0-3.6062-1.0356-5.3082-2.7188-5.0938z" fill="#fff"/>
      </g>
     </g>
    </g>
   </g>
  </g>
 </g>
</svg>
