<svg width="256" height="256" xmlns="http://www.w3.org/2000/svg">
 <g>
  <title>background</title>
  <rect fill="#fff" id="canvas_background" height="258" width="258" y="-1" x="-1"/>
  <g display="none" overflow="visible" y="0" x="0" height="100%" width="100%" id="canvasGrid">
   <rect fill="url(#gridpattern)" stroke-width="0" y="0" x="0" height="100%" width="100%"/>
  </g>
 </g>
 <g>
  <title>Layer 1</title>
  <rect id="svg_1" height="128" width="256" y="128" stroke-width="0" stroke="#000" fill="#aad4ff"/>
  <path stroke="#000" transform="rotate(-0.6284494400024414 181.23251342773375,110.26586151123115) " id="svg_5" d="m198.255802,194.767004c0,0 -12.74385,-1.426766 -19.492972,-6.881225c-6.749122,-5.454525 -9.898689,-12.409027 -9.898689,-12.409027c0,0 3.541894,5.998572 8.512262,10.5436c3.030285,2.770929 6.591751,5.001675 10.205293,5.001675c0,0 -5.579003,-4.772585 -9.763793,-1.363748c0,0 3.014671,-3.136314 8.233982,-0.749955c5.219619,2.386292 7.828944,1.022545 7.828944,1.022545c0,0 -8.818514,-0.068147 -12.643218,-3.886335c-3.824747,-3.818188 -4.769674,-5.999572 -4.769674,-5.999572c0,0 3.959643,6.20448 7.019265,6.954502c3.059622,0.750021 8.323927,-0.136761 8.323927,-0.136761c0,0 -5.444151,0.204909 -7.15416,-0.954464c-1.709701,-1.158773 -8.458823,-3.476984 -9.673541,1.363748c0,0 1.349613,-5.113788 7.513851,-3.613746c6.164238,1.500043 6.749474,1.023077 6.749474,1.023077c0,0 -10.933913,-6.409455 -17.053156,-2.795643c-6.119288,3.613746 -5.714294,6.681912 -5.714294,6.681912c0,0 0.405038,-10.636395 15.343192,-8.727534c0,0 -6.973962,-1.56819 -9.538997,-4.704437c-2.564331,-3.136314 -2.744529,-5.181469 -2.744529,-5.181469c0,0 2.924419,6.749593 6.524282,6.817741c3.599555,0.068614 4.634427,-0.408818 4.634427,-0.408818c0,0 -7.019221,-2.45444 -10.348985,-1.909394c-3.329457,0.545646 -8.728613,2.318212 -11.563439,-5.454459c0,0 2.654628,7.432 9.899041,4.841265c7.244061,-2.591201 11.788235,0.272523 11.788235,0.272523c0,0 -10.978555,-3.204461 -13.228453,-6.408856c-2.24959,-3.204461 -2.519381,-8.727601 -2.519381,-8.727601c0,0 0.944927,9.272647 5.579003,10.159496c4.634779,0.88625 11.653692,0.681341 13.498596,3.886269c0,0 -4.634427,-5.181936 -9.449052,-4.500062c-4.814273,0.681874 -12.238532,10.090816 -16.017976,7.636376c-3.779401,-2.45444 -5.48941,-0.409284 -5.48941,-0.409284c0,0 1.575113,-2.386292 4.27434,-1.295667c2.69993,1.091225 3.284814,2.727496 7.919241,-2.113236c4.634427,-4.840732 12.508366,-10.84077 17.502837,-5.659367c0,0 -23.336676,-9.794577 -25.856057,-29.703152c0,0 2.218626,13.274027 13.617481,19.182269c11.399207,5.908242 12.058686,5.454525 12.058686,5.454525c0,0 -17.577432,-2.818825 -25.796724,-26.818644c0,0 7.13881,18.636623 18.237922,21.091063c0,0 -9.359107,-4.908813 -16.618518,-19.908508c-7.258399,-15.000228 -7.559506,-20.000904 -7.559506,-20.000904c0,0 8.819834,23.999752 25.4983,28.273189c0,0 -13.064221,-5.660367 -22.423021,-23.728228c-9.358755,-18.067862 -6.434029,-21.61346 -6.434029,-21.61346c0,0 -2.02475,-6.47707 -0.495291,-7.908965c0,0 -3.014671,-5.181936 -2.159645,-9.408942c0,0 2.159645,16.02224 13.183503,26.522406c11.023814,10.499634 11.968741,11.795234 11.968741,11.795234c0,0 -11.428852,-11.863381 -15.028407,-17.590896c-3.599555,-5.727049 -7.649099,-10.158963 -9.988941,-22.431162c0,0 2.249942,12.135905 9.359107,20.454154c7.108858,8.31825 8.504081,8.181488 8.504081,8.181488c0,0 -14.578418,-11.317802 -18.043034,-30.067538c0,0 2.02475,13.840856 18.088029,27.067985c0,0 -16.108229,-14.386435 -18.088029,-29.727334c0,0 -0.359736,-2.249998 0.315049,-3.34069c0,0 -0.810032,-2.931938 -0.539889,-6.613831c0.269791,-3.681427 0.584884,-7.635843 0.584884,-7.635843c0,0 -0.719779,15.545274 9.268855,27.544951c0,0 -11.788587,-21.410083 -7.58849,-39.045412c0,0 -0.900636,9.727363 1.919191,14.181526c0,0 -2.400143,-7.817103 -1.259712,-16.999419c0,0 -0.300403,9.727429 2.699578,18.54536c3.000025,8.817931 12.598619,25.908613 12.598619,25.908613c0,0 -11.278298,-20.000371 -13.078252,-31.272742c-1.799602,-11.272371 -0.780387,-18.63569 -0.780387,-18.63569c0,0 -1.019214,10.544599 3.360069,21.090597c4.379283,10.545598 5.879449,11.727153 5.879449,11.727153c0,0 -12.059345,-19.000609 -7.500173,-40.090672c0,0 -0.299435,21.36312 4.67973,30.54497c4.980132,9.18225 6.478979,9.454839 6.478979,9.454839c0,0 -10.258732,-12.272732 -9.898997,-29.454278c0.360351,-17.181612 2.280862,-18.090578 2.280862,-18.090578c0,0 -4.260353,14.54398 2.578714,28.544779c6.839375,14.000799 5.459765,11.3637 5.459765,11.3637c0,0 -9.718491,-19.090406 -7.79864,-33.999771c1.919851,-14.909298 5.579003,-14.727106 5.579003,-14.727106c0,0 -4.018887,3.999381 -3.839042,13.181165c0.17989,9.18185 5.939398,26.999838 5.939398,26.999838c0,0 -6.419691,-24.453536 -4.679686,-31.999581c1.739345,-7.545512 5.399509,-9.81776 5.399509,-9.81776c0,0 -7.140173,6.181831 -3.000685,22.727401c0,0 -2.579329,-15.726002 4.319334,-23.089788c0,0 -4.918864,7.091263 -2.879424,20.272494c0,0 -0.599882,-16.182716 5.939046,-21.727572c0,0 -4.198425,5.000742 -4.258726,15.091491c0,0 0.899977,-10.182611 5.878834,-15.90966c0,0 -3.779753,8.727068 -3.539299,21.272323c0,0 2.819827,-12.362063 4.200097,-21.453517c0,0 0.239179,4.909346 -0.780387,10.999315c-1.019566,6.090901 -1.499507,6.636014 -1.499507,6.636014c0,0 3.659152,-8.181488 3.83935,-16.18125c0,0 0.17989,7.818568 -1.37961,14.364252c0,0 2.970381,-3.619208 3.344455,-11.638688c0.00585,-0.119508 0.010424,-0.240015 0.014954,-0.361454c0,0 0.839368,11.726087 -2.220253,21.635709c-3.059622,9.910088 -4.499532,10.818587 -4.499532,10.818587c0,0 6.780086,-9.727896 7.799652,-23.18165c0,0 0.119897,7.544513 -1.679704,14.089731c-1.799646,6.545617 -3.719804,11.546359 -3.719804,11.546359c0,0 9.058661,-12.455858 7.559154,-34.817873c0,0 1.739345,12.453393 0.17989,21.908232c-1.559499,9.454839 -9.239562,23.999819 -9.239562,23.999819c0,0 11.939448,-16.000523 12.47903,-41.363557c0,0 1.43991,14.999695 -4.049544,28.635643c0,0 8.099087,-13.908537 7.919241,-27.135666c0,0 1.799954,6.681446 0.269791,15.817864c-1.529503,9.136352 -8.818514,30.54497 -16.37802,35.726906c0,0 20.517508,-16.772794 19.167851,-45.544665c0,0 2.24959,13.090368 -0.539889,25.772385c-2.789523,12.681484 -13.408651,32.044946 -13.408651,32.044946c0,0 15.208252,-21.272323 17.458194,-44.454439c0,0 0.719779,-7.090264 -0.180198,-11.317802c0,0 3.689808,2.45444 3.959599,12.954606c0.269791,10.499634 -3.329413,24.681626 -5.849145,34.635681c-2.519733,9.954521 -7.918889,23.18165 -7.918889,23.18165c0,0 17.547787,-40.635785 15.027747,-60.544827c0,0 4.49984,8.590773 3.959599,19.772813c-0.539581,11.181441 -4.319334,42.272056 -14.847901,56.317288c0,0 11.338599,-13.635947 14.488166,-38.453869c0,0 1.619756,-13.227129 1.349657,-20.454687c0,0 2.24959,15.272751 1.439866,26.727315c-0.809724,11.454563 -9.268855,37.090653 -9.268855,37.090653c0,0 9.268855,-21.409084 9.898689,-34.772508c0,0 0.989922,8.045194 0.270143,15.409046c-0.719779,7.36332 -4.859268,21.136028 -8.36923,29.181222c0,0 7.379308,-16.090387 8.909119,-23.18165c1.529855,-7.090797 1.259712,-11.181507 1.259712,-11.181507c0,0 1.799954,22.090958 -1.079823,32.454297c-2.879776,10.363339 -11.968433,25.772385 -12.598267,32.99941c0,0 4.229389,-16.772261 13.408299,-19.363462c9.17891,-2.590735 14.398221,1.363748 14.398221,1.363748c0,0 -13.948232,-6.818207 -21.417485,6.000038c0,0 -3.779401,6.954502 -3.869654,13.227129c0,0 9.719151,-10.363339 11.248654,-24.545398c1.530119,-14.181526 8.639328,-16.363443 8.639328,-16.363443c0,0 -7.919241,4.500062 -7.829296,16.772794c0.089945,12.272666 -8.999064,26.726782 -11.158709,26.317964c0,0 7.379308,-3.136314 9.988941,-12.545255c0,0 -1.710009,9.54517 -5.399157,15.067843c-3.689808,5.522606 -2.47509,7.908899 -2.47509,7.908899c0,0 1.26002,-5.931424 4.94952,-10.908984c3.689808,-4.977027 8.549031,-13.5678 8.594026,-19.363462c0.04495,-5.795129 4.049544,-11.590792 4.049544,-11.590792c0,0 -3.149567,6.068185 -3.284814,10.431952c-0.134895,4.363301 0.315093,11.181507 -4.949168,16.909022c-5.264613,5.727049 -7.469253,16.022306 -7.379308,20.522302c0,0 3.67481,-16.068138 14.473827,-19.249417c0,0 -10.319385,3.090416 -13.978536,20.727277c0,0 6.838715,-17.635862 15.957984,-22.272218c0,0 -9.718799,6.272628 -14.398221,21.636242c0,0 2.759571,-10.91045 11.398239,-11.364167c0,0 -7.19911,1.454078 -10.138175,11.727087c0,0 1.319617,-4.362301 6.239185,-5.908242c4.919524,-1.545941 9.058353,-6.909603 8.038787,-12.001142c0,0 1.259712,7.089797 -5.159011,11.81795c-6.419383,4.728153 -9.116366,16.049752 -9.116366,16.049752c0,0 5.227316,7.499748 9.45367,13.819739c-0.333654,3.539203 -1.485872,4.513052 -2.558042,4.887563c-0.383354,0.133897 -9.333025,-15.117071 -9.842962,-15.420904z" stroke-opacity="null" stroke-width="0" fill="#000000"/>
  <text stroke="#000" transform="matrix(0.29059720376147524,0,0,0.30264069748318967,177.2510004191511,157.49299860927903) " xml:space="preserve" text-anchor="start" font-family="Helvetica, Arial, sans-serif" font-size="24" id="svg_6" y="178.553123" x="130.775435" stroke-opacity="null" stroke-width="0" fill="#000000">Ashtar Eve</text>
 </g>
</svg>